<svg xmlns="http://www.w3.org/2000/svg" xmlns:xlink="http://www.w3.org/1999/xlink" width="64" height="64"><path d="M3 4h10v9.008A1.99 1.99 0 0 1 11 15H5c-1.105 0-2-.9-2-1.992V4zM2 2h12v1H2V2zm3-1h6v1H5V1zM29.526 6.25h-1.474V5.5c0-.414-.33-.75-.737-.75h-1.473V4c0-.414-.33-.75-.737-.75h-.737v-1.5a.743.743 0 0 0-.494-.7.494.494 0 0 0-.243-.05C19.968 1 17 4.022 17 7.75s2.968 6.75 6.631 6.75c3.663 0 6.632-3.022 6.632-6.75V7c0-.414-.33-.75-.737-.75zM19.579 8.5c-.611 0-1.106-.503-1.106-1.125s.495-1.125 1.106-1.125c.61 0 1.105.503 1.105 1.125S20.189 8.5 19.579 8.5zm1.105-4.125c0-.622.495-1.125 1.105-1.125.611 0 1.105.503 1.105 1.125 0 .621-.494 1.125-1.105 1.125-.61 0-1.105-.504-1.105-1.125zM22.894 13c-.61 0-1.105-.503-1.105-1.125 0-.62.495-1.125 1.105-1.125.611 0 1.106.504 1.106 1.125 0 .622-.495 1.125-1.106 1.125zm.369-3.75c-.61 0-1.105-.504-1.105-1.125S22.653 7 23.263 7s1.105.504 1.105 1.125-.495 1.125-1.105 1.125zm3.684 1.5c-.61 0-1.105-.504-1.105-1.125S26.337 8.5 26.947 8.5s1.105.504 1.105 1.125-.495 1.125-1.105 1.125z" fill="#212121"/><path d="M40 6c3.314 0 6-.895 6-2s-2.686-2-6-2-6 .895-6 2 2.686 2 6 2zm-6 7c0 1.105 2.686 2 6 2s6-.895 6-2v-2c0 1.105-2.686 2-6 2s-6-.895-6-2v2zm0-3c0 1.105 2.686 2 6 2s6-.895 6-2V8c0 1.105-2.686 2-6 2s-6-.895-6-2v2zm0-3c0 1.105 2.686 2 6 2s6-.895 6-2V5c0 1.105-2.686 2-6 2s-6-.895-6-2v2z"/><g fill="none"><path d="M48 0h16v16H48z"/><path d="M57 1h-5.005c-.54 0-.995.45-.995 1.007v11.986A1 1 0 0 0 51.995 15h8.01c.54 0 .995-.451.995-1.007V5l-4-4zm3.29 4H57V1.71L60.29 5z" fill="#000"/></g><path d="M6.5 19.229V17h3v2.229a4.994 4.994 0 0 1 1.88 1.087l1.932-1.115 1.5 2.598-1.93 1.115a5.018 5.018 0 0 1 0 2.172l1.93 1.115-1.5 2.598-1.931-1.115A4.995 4.995 0 0 1 9.5 28.771v2.23h-3v-2.23a4.994 4.994 0 0 1-1.88-1.087L2.687 28.8l-1.5-2.598 1.93-1.114a5.018 5.018 0 0 1 0-2.173l-1.93-1.115 1.5-2.598 1.931 1.115A4.995 4.995 0 0 1 6.5 19.23zM8 26.5a2.5 2.5 0 1 0 0-5 2.5 2.5 0 0 0 0 5zM18 19.999a1 1 0 0 1 .99-.999H24v3h-6v-2.001zM18 27h6v3h-5.01a.992.992 0 0 1-.99-.999V27zm0-4h6v3h-6v-3zm7-4h5.01c.546 0 .99.443.99.999V22h-6v-3zm0 8h6v2.001a1 1 0 0 1-.99.999H25v-3zm0-4h6v3h-6v-3z" fill="#212121"/><path d="M39.5 29a5.5 5.5 0 1 0 0-11 5.5 5.5 0 0 0 0 11zm0-2.2v-2.2h-3.3v-2.2h3.3v-2.2l3.3 3.3-3.3 3.3z"/><g transform="translate(-26 -7)"><circle transform="matrix(1.2 0 0 1.2 72.4 21.2)" cx="10.5" cy="11.5" r="2.5" fill="#009802"/><path d="M78 25c-.544 0-1 .45-1 1v8c0 .54.45 1 1 1h3.031a3.533 3.533 0 0 1-.031-.5c0-.17.008-.337.031-.5H78v-8h3v3h3v1.5c.163-.023.33 0 .5 0 .17 0 .337-.023.5 0V28l-3-3zm4 1l2 2h-2z"/></g><path d="M8 34H3.997a1 1 0 0 0-.997.995v8.01c0 .54.446.995.997.995h6.006a1 1 0 0 0 .997-.995V37l-3-3zm0 1l2 2H8v-2zm-4 0h3v3h3v5H4v-8z"/><path d="M17 39.5a6.5 6.5 0 1 0 13 0 6.5 6.5 0 0 0-13 0" fill="#9f9f9f"/><path d="M27 37.43l-.93-.93-2.57 2.57-2.57-2.57-.93.93L22.57 40 20 42.57l.93.93 2.57-2.57 2.57 2.57.93-.93L24.43 40 27 37.43z" fill-opacity=".36"/><path d="M27 36.93l-.93-.93-2.57 2.57L20.93 36l-.93.93 2.57 2.57L20 42.07l.93.93 2.57-2.57L26.07 43l.93-.93-2.57-2.57L27 36.93z" fill="#fff"/><path d="M33 39.5a6.5 6.5 0 1 0 13 0 6.5 6.5 0 0 0-13 0" fill="#bebebe"/><path d="M43 37.43l-.93-.93-2.57 2.57-2.57-2.57-.93.93L38.57 40 36 42.57l.93.93 2.57-2.57 2.57 2.57.93-.93L40.43 40 43 37.43z" fill-opacity=".37"/><path d="M43 36.93l-.93-.93-2.57 2.57L36.93 36l-.93.93 2.57 2.57L36 42.07l.93.93 2.57-2.57L42.07 43l.93-.93-2.57-2.57L43 36.93z" fill="#fff"/><g transform="translate(49 33)"><path transform="translate(-111 -96)" d="M118 96c-3.87 0-7 3.13-7 7s3.13 7 7 7 7-3.13 7-7-3.13-7-7-7" fill="url(#a)"/><path d="M.5 7a6.5 6.5 0 1 0 13 0 6.5 6.5 0 0 0-13 0" fill="#f27d82"/><path d="M10.5 4.93L9.57 4 7 6.57 4.43 4l-.93.93L6.07 7.5 3.5 10.07l.93.93L7 8.43 9.57 11l.93-.93L7.93 7.5l2.57-2.57z" fill-opacity=".36"/><path d="M10.5 4.43l-.93-.93L7 6.07 4.43 3.5l-.93.93L6.07 7 3.5 9.57l.93.93L7 7.93l2.57 2.57.93-.93L7.93 7l2.57-2.57z" fill="#fff"/><defs><linearGradient id="b"><stop stop-color="#d7687d" offset="0"/><stop stop-color="#b21402" offset="1"/></linearGradient><linearGradient id="a" x2="24" gradientTransform="matrix(0 -.58333 -.58333 0 118 110)" gradientUnits="userSpaceOnUse" xlink:href="#b"/></defs></g><g transform="translate(1 49)"><path transform="translate(-96 -96)" d="M103 110c3.87 0 7-3.13 7-7s-3.13-7-7-7-7 3.13-7 7 3.13 7 7 7" fill="url(#c)"/><path transform="translate(-96 -96)" d="M103 96.5a6.5 6.5 0 1 0 0 13 6.5 6.5 0 0 0 0-13" fill="url(#d)"/><path d="M10.5 4.93L9.57 4 7 6.57 4.43 4l-.93.93L6.07 7.5 3.5 10.07l.93.93L7 8.43 9.57 11l.93-.93L7.93 7.5l2.57-2.57z" fill="#993c35"/><path d="M10.5 4.43l-.93-.93L7 6.07 4.43 3.5l-.93.93L6.07 7 3.5 9.57l.93.93L7 7.93l2.57 2.57.93-.93L7.93 7l2.57-2.57z" fill="#fff"/><defs><linearGradient id="d" x1="96.5" x2="109.5" y1="103" y2="103" gradientTransform="rotate(90 103 103)" gradientUnits="userSpaceOnUse" xlink:href="#e"/><linearGradient id="e"><stop stop-color="#e59290" offset="0"/><stop stop-color="#e99890" offset="1"/></linearGradient><linearGradient id="c" x1="113" x2="127" y1="104" y2="104" gradientTransform="rotate(90 112 95)" gradientUnits="userSpaceOnUse" xlink:href="#f"/><linearGradient id="f"><stop stop-color="#c0544f" offset="0"/><stop stop-color="#d08481" offset="1"/></linearGradient></defs></g><path d="M26.27 58.92a4.5 4.5 0 1 1 .73-.684l2.346 2.346-.707.707zm-2.692-.106a3.5 3.5 0 1 0 0-7 3.5 3.5 0 0 0 0 7z" fill="#5b5b5b"/><text style="line-height:125%" x="-11.403" y="59.208" font-size="10" font-weight="400" letter-spacing="0" word-spacing="0" fill="#b3b3b3" font-family="Sans"><tspan x="-11.403" y="59.208">1</tspan></text><text style="line-height:125%" x="-11.144" y="43.675" font-size="10" font-weight="400" letter-spacing="0" word-spacing="0" fill="#b3b3b3" font-family="Sans"><tspan x="-11.144" y="43.675">2</tspan></text><text style="line-height:125%" x="-11.066" y="28.143" font-size="10" font-weight="400" letter-spacing="0" word-spacing="0" fill="#b3b3b3" font-family="Sans"><tspan x="-11.066" y="28.143">3</tspan></text><text style="line-height:125%" x="-11.266" y="12.611" font-size="10" font-weight="400" letter-spacing="0" word-spacing="0" fill="#b3b3b3" font-family="Sans"><tspan x="-11.266" y="12.611">4</tspan></text><text style="line-height:125%" x="5.935" y="76.082" font-size="10" font-weight="400" letter-spacing="0" word-spacing="0" fill="#b3b3b3" font-family="Sans"><tspan x="5.935" y="76.082">a</tspan></text><text style="line-height:125%" x="21.659" y="76.082" font-size="10" font-weight="400" letter-spacing="0" word-spacing="0" fill="#b3b3b3" font-family="Sans"><tspan x="21.659" y="76.082">b</tspan></text><text style="line-height:125%" x="37.384" y="76.082" font-size="10" font-weight="400" letter-spacing="0" word-spacing="0" fill="#b3b3b3" font-family="Sans"><tspan x="37.384" y="76.082">c</tspan></text><text style="line-height:125%" x="53.108" y="76.082" font-size="10" font-weight="400" letter-spacing="0" word-spacing="0" fill="#b3b3b3" font-family="Sans"><tspan x="53.108" y="76.082">d</tspan></text></svg>