<svg xmlns="http://www.w3.org/2000/svg" xmlns:xlink="http://www.w3.org/1999/xlink" width="90" height="90"><path d="M0 .995C0 .445.456 0 .995 0h8.01c.55 0 .995.455.995.995v8.01c0 .549-.456.995-.995.995H.995C.445 10 0 9.544 0 9.004zm5.123 4.744C7.691 5.312 8.75 4.546 8.75 2h-1.5c0 1.62-.44 1.939-2.373 2.26C2.309 4.689 1.25 5.454 1.25 8h1.5c0-1.62.44-1.937 2.373-2.26zM23.65 7.21l-1.44-2.03L21 6.39 23.55 10 30 2.33 28.88 1z"/><path d="M6.5 26c0 .55.45 1 1 1s1-.45 1-1-.45-1-1-1-1 .45-1 1" fill="#bababa"/><path d="M5.75 22.75L2.25 26l3.5 3.25" fill="none" stroke="#bababa" stroke-width="1.5"/><path d="M27.5 22.43l-.93-.93L24 24.07l-2.57-2.57-.93.93L23.07 25l-2.57 2.57.93.93L24 25.93l2.57 2.57.93-.93L24.93 25l2.57-2.57z" fill-opacity=".24"/><path d="M27.5 21.93l-.93-.93L24 23.57 21.43 21l-.93.93 2.57 2.57-2.57 2.57.93.93L24 25.43 26.57 28l.93-.93-2.57-2.57 2.57-2.57z" fill="#676767"/><path d="M43.25 0C42.55 0 42 .5 42 1.25v7.5c0 .7.5 1.25 1.25 1.25h3.5c.7 0 1.25-.5 1.25-1.25v-7.5C48 .55 47.5 0 46.75 0zM43 1h4v7h-4zm2 7.25c.4 0 .75.3.75.75 0 .4-.3.75-.75.75-.4 0-.75-.3-.75-.75 0-.4.3-.75.75-.75z"/><g transform="translate(40 20)"><path transform="translate(-20)" d="M25 0c-2.76 0-5 2.24-5 5s2.24 5 5 5 5-2.24 5-5-2.24-5-5-5" fill="url(#a)"/><path d="M.36 5C.36 7.56 2.44 9.64 5 9.64c2.56 0 4.64-2.08 4.64-4.64C9.64 2.44 7.56.36 5 .36 2.44.36.36 2.44.36 5" fill="#eb3941"/><path d="M3 3l4 4M7 3L3 7" stroke="#fff"/><defs><linearGradient id="b"><stop stop-color="#d7687d" offset="0"/><stop stop-color="#b21402" offset="1"/></linearGradient><linearGradient id="a" x2="24" gradientTransform="matrix(0 -.41667 -.41667 0 25 10)" gradientUnits="userSpaceOnUse" xlink:href="#b"/></defs></g><path d="M4.5 41.3l4 3.7-4 3.7v-1.2H1.425l.075-5h3z" fill="#adf2ad" stroke="#007200"/><g transform="translate(20 40)"><path transform="translate(-140)" d="M144.95 10A5.002 5.002 0 0 1 140 4.95 5.002 5.002 0 0 1 145.05 0c2.76.03 4.98 2.29 4.95 5.05a5.002 5.002 0 0 1-5.05 4.95z" fill="url(#c)"/><path d="M9.5 5.05A4.494 4.494 0 0 1 4.95 9.5 4.494 4.494 0 0 1 .5 4.95 4.494 4.494 0 0 1 5.05.5C7.54.53 9.53 2.56 9.5 5.05z" fill="#00be00"/><path transform="translate(-140)" d="M145.08.53c1.97.02 3.55 1.06 3.54 2.32-.01 1.26-1.62 2.26-3.59 2.24-1.97-.02-3.55-1.06-3.54-2.32.01-1.26 1.62-2.26 3.59-2.24z" fill="url(#d)"/><path transform="translate(-140)" d="M144.98 9.41c1.66.02 3.01-.68 3.02-1.56.01-.88-1.33-1.61-2.98-1.63-1.66-.02-3.01.68-3.02 1.56-.01.88 1.33 1.61 2.98 1.63z" fill="url(#e)"/><defs><linearGradient id="f"><stop stop-color="#00d600" stop-opacity="0" offset="0"/><stop stop-color="#d8fc7b" stop-opacity=".81" offset="1"/></linearGradient><linearGradient id="g"><stop stop-color="#00ba00" offset="0"/><stop stop-color="#fff" stop-opacity=".91" offset="1"/></linearGradient><linearGradient id="h"><stop stop-color="#00a104" offset="0"/><stop stop-color="#00c605" offset="1"/></linearGradient><linearGradient id="e" x1="227.88" x2="235.12" y1="103.16" y2="103.16" gradientTransform="matrix(-.0048 .4396 .78038 .00853 65.608 -94.834)" gradientUnits="userSpaceOnUse" xlink:href="#f"/><linearGradient id="d" x1="227.88" x2="235.12" y1="103.16" y2="103.16" gradientTransform="matrix(.00687 -.62923 .9267 .01012 47.871 147.44)" gradientUnits="userSpaceOnUse" xlink:href="#g"/><linearGradient id="c" x1="227.88" x2="235.12" y1="103.16" y2="103.16" gradientTransform="matrix(-.01507 1.3791 -1.3006 -.0142 282.66 -312.8)" gradientUnits="userSpaceOnUse" xlink:href="#h"/></defs></g><g transform="translate(40 40)"><path transform="translate(-80)" d="M85 0c-2.76 0-5 2.24-5 5s2.24 5 5 5 5-2.24 5-5-2.24-5-5-5" fill="url(#i)"/><path d="M.36 5C.36 7.56 2.44 9.64 5 9.64c2.56 0 4.64-2.08 4.64-4.64C9.64 2.44 7.56.36 5 .36 2.44.36.36 2.44.36 5" fill="#2a53cd"/><path d="M3.93 2.14c-.03-.53.55-.97 1.06-.83.5.12.79.73.56 1.18-.2.44-.79.61-1.2.36a.812.812 0 0 1-.42-.71zm1.7 5.46h.67v.53H3.41V7.6h.66V3.99h-.66v-.53h2.22V7.6z" fill="#fff"/><defs><linearGradient id="j"><stop stop-color="#606eda" offset="0"/><stop stop-color="#021db2" offset="1"/></linearGradient><linearGradient id="i" x1="113" x2="127" y1="104" y2="104" gradientTransform="translate(-.714 -69.286) scale(.71429)" gradientUnits="userSpaceOnUse" xlink:href="#j"/></defs></g><path d="M60.45.467v9.079h5.373l3.582-4.54L65.823.467z" fill="#698cfe" stroke="#4073f4" stroke-width=".908"/><path d="M60.45 20.467v9.08h5.372l3.581-4.54-3.581-4.54z" fill="#ef9d0d" stroke="#a36c01" stroke-width=".908"/><g transform="translate(60 40)"><path d="M5 10c-2.76 0-5-2.24-5-5s2.24-5 5-5 5 2.24 5 5-2.24 5-5 5z" fill="#e5a600"/><path d="M9.5 5c0 2.49-2.01 4.5-4.5 4.5S.5 7.49.5 5 2.51.5 5 .5 9.5 2.51 9.5 5z" fill="#ffbd00"/><path transform="translate(-160)" d="M165.03.53c1.97 0 3.56 1.02 3.56 2.28 0 1.26-1.59 2.28-3.56 2.28s-3.56-1.02-3.56-2.28c0-1.26 1.59-2.28 3.56-2.28z" fill="url(#k)"/><path transform="translate(-160)" d="M164.99 9.42c1.66 0 3-.71 3-1.59 0-.88-1.34-1.59-3-1.59s-3 .71-3 1.59c0 .88 1.34 1.59 3 1.59z" fill="url(#l)"/><defs><linearGradient id="m"><stop stop-color="#ffa801" stop-opacity="0" offset="0"/><stop stop-color="#f0fb3d" offset="1"/></linearGradient><linearGradient id="n"><stop stop-color="#ffbd00" stop-opacity=".65" offset="0"/><stop stop-color="#fff" stop-opacity=".91" offset="1"/></linearGradient><linearGradient id="l" x1="227.88" x2="235.12" y1="103.16" y2="103.16" gradientTransform="matrix(0 .43966 .78049 0 84.444 -93.924)" gradientUnits="userSpaceOnUse" xlink:href="#m"/><linearGradient id="k" x1="227.88" x2="235.12" y1="103.16" y2="103.16" gradientTransform="matrix(0 -.62931 .92683 0 69.47 148.53)" gradientUnits="userSpaceOnUse" xlink:href="#n"/></defs></g><g transform="translate(0 60)"><path transform="translate(-120)" d="M125 10c-2.76 0-5-2.24-5-5s2.24-5 5-5 5 2.24 5 5-2.24 5-5 5z" fill="url(#o)"/><path d="M9.5 5c0 2.49-2.01 4.5-4.5 4.5S.5 7.49.5 5 2.51.5 5 .5 9.5 2.51 9.5 5z" fill="#d00"/><path transform="translate(-120)" d="M125.03.53c1.97 0 3.56 1.02 3.56 2.28 0 1.26-1.59 2.28-3.56 2.28s-3.56-1.02-3.56-2.28c0-1.26 1.59-2.28 3.56-2.28z" fill="url(#p)"/><path transform="translate(-120)" d="M125.03 9.47c1.66 0 3-.71 3-1.59 0-.88-1.34-1.59-3-1.59s-3 .71-3 1.59c0 .88 1.34 1.59 3 1.59z" fill="url(#q)"/><defs><linearGradient id="r"><stop stop-color="red" stop-opacity="0" offset="0"/><stop stop-color="#f0cb68" stop-opacity=".71" offset="1"/></linearGradient><linearGradient id="s"><stop stop-color="#e60000" stop-opacity=".65" offset="0"/><stop stop-color="#fff" stop-opacity=".91" offset="1"/></linearGradient><linearGradient id="t"><stop stop-color="#a10000" offset="0"/><stop stop-color="#c60000" offset="1"/></linearGradient><linearGradient id="q" x1="227.88" x2="235.12" y1="103.16" y2="103.16" gradientTransform="matrix(0 .43966 .78049 0 44.488 -93.88)" gradientUnits="userSpaceOnUse" xlink:href="#r"/><linearGradient id="p" x1="227.88" x2="235.12" y1="103.16" y2="103.16" gradientTransform="matrix(0 -.62931 .92683 0 29.47 148.53)" gradientUnits="userSpaceOnUse" xlink:href="#s"/><linearGradient id="o" x1="227.88" x2="235.12" y1="103.16" y2="103.16" gradientTransform="matrix(0 1.3793 -1.3008 0 259.08 -314.35)" gradientUnits="userSpaceOnUse" xlink:href="#t"/></defs></g><path d="M20 60h10v10H20z" fill="none"/><path d="M27.5 62.5V60H20v7.5h2.5V70H30v-7.5zM21 61h5.5v5.5H21zm2.5 6.5h4v-4H29V69h-5.5z"/><path d="M23.5 67.5h4v-4H29V69h-5.5z" fill-opacity=".25"/><g fill="#acf2ae" stroke="#007200" stroke-width="2.577"><path transform="matrix(.29356 0 0 .2909 2.65 66.864)" d="M144.95 10A5.002 5.002 0 0 1 140 4.95 5.002 5.002 0 0 1 145.05 0c2.76.03 4.98 2.29 4.95 5.05a5.002 5.002 0 0 1-5.05 4.95z"/><path transform="matrix(.29356 0 0 .2909 2.65 66.864)" d="M149.5 5.05a4.494 4.494 0 0 1-4.55 4.45 4.494 4.494 0 0 1-4.45-4.55A4.494 4.494 0 0 1 145.05.5c2.49.03 4.48 2.06 4.45 4.55z"/></g><path d="M48.313 62.5L45.21 66l-3.102-3.5h1.24v-1.92h3.723v1.92z" fill="#adf2ad" stroke="#007200"/><path d="M66.537 68.514a1.314 1.314 0 0 1-1.335 1.295 1.313 1.313 0 0 1-1.306-1.324 1.314 1.314 0 0 1 1.335-1.294c.731.009 1.315.6 1.307 1.323z" fill="#acf2ae" stroke="#007200" stroke-width=".753"/><path d="M62.108 63.5l3.102-2.982 3.102 2.982h-1.24v2h-3.723v-2z" fill="#adf2ad" stroke="#007200"/><path d="M83.25 1.75L86.75 5l-3.5 3.25" fill="none" stroke="#367cf1" stroke-width="1.5"/><path d="M86 20l-5 5 5 5v-2h3v-6h-3zM84 40l5 5-5 5.022v-2.044L81 48v-6h3z" fill="#4688f1"/><path d="M84 68l4-7h-8M8 84l-7-4v8M24 80l4 7h-8"/><path d="M43.25 82.75l3.5 3.25-3.5 3.25" fill="none" stroke="#939393" stroke-width="1.5"/><path d="M61 89l4-8 4 8z" stroke="#c19600" stroke-width="2" stroke-linejoin="round"/><path d="M61 89l4-8 4 8z" fill="#f4bd00" stroke="#f5bd00" stroke-width="1.5" stroke-linejoin="round"/><path d="M63.75 82.75h2.5v2.5l-.5 1.75h-1.5l-.5-1.75v-2.5m0 5.25h2.5v1.25h-2.5" fill="#ad8601"/><path d="M64 83h2v2.25L65.5 87h-1l-.5-1.75V83m0 5h2v1h-2" fill="#fff"/><text style="line-height:125%" x="3.051" y="98.387" font-size="8" font-weight="400" letter-spacing="0" word-spacing="0" fill="#ccc" font-family="Sans"><tspan x="3.051" y="98.387">a</tspan></text><text style="line-height:125%" x="23.051" y="98.387" font-size="8" font-weight="400" letter-spacing="0" word-spacing="0" fill="#ccc" font-family="Sans"><tspan x="23.051" y="98.387">b</tspan></text><text style="line-height:125%" x="43.051" y="98.387" font-size="8" font-weight="400" letter-spacing="0" word-spacing="0" fill="#ccc" font-family="Sans"><tspan x="43.051" y="98.387">c</tspan></text><text style="line-height:125%" x="63.051" y="98.387" font-size="8" font-weight="400" letter-spacing="0" word-spacing="0" fill="#ccc" font-family="Sans"><tspan x="63.051" y="98.387">d</tspan></text><text style="line-height:125%" x="83.051" y="98.387" font-size="8" font-weight="400" letter-spacing="0" word-spacing="0" fill="#ccc" font-family="Sans"><tspan x="83.051" y="98.387">e</tspan></text><text style="line-height:125%" x="-7.026" y="87.818" font-size="8" font-weight="400" letter-spacing="0" word-spacing="0" fill="#ccc" font-family="Sans"><tspan x="-7.026" y="87.818">1</tspan></text><text style="line-height:125%" x="-6.819" y="67.88" font-size="8" font-weight="400" letter-spacing="0" word-spacing="0" fill="#ccc" font-family="Sans"><tspan x="-6.819" y="67.88">2</tspan></text><text style="line-height:125%" x="-6.756" y="47.992" font-size="8" font-weight="400" letter-spacing="0" word-spacing="0" fill="#ccc" font-family="Sans"><tspan x="-6.756" y="47.992">3</tspan></text><text style="line-height:125%" x="-6.917" y="27.994" font-size="8" font-weight="400" letter-spacing="0" word-spacing="0" fill="#ccc" font-family="Sans"><tspan x="-6.917" y="27.994">4</tspan></text><text style="line-height:125%" x="-7.108" y="8.056" font-size="8" font-weight="400" letter-spacing="0" word-spacing="0" fill="#ccc" font-family="Sans"><tspan x="-7.108" y="8.056">5</tspan></text><g transform="matrix(1.13208 0 0 1.13208 81.604 82.604)" fill="#00bcd4" stroke="#000" stroke-width=".3"><circle cx="3" cy="3" r="2.5"/></g></svg>